<svg width="512" height="512" viewBox="0 0 512 512" fill="none" xmlns="http://www.w3.org/2000/svg">
<path d="M173.92 111H139.72C109.499 111 85 135.571 85 165.88V399.12C85 429.429 109.499 454 139.72 454H372.28C402.501 454 427 429.429 427 399.12V165.88C427 135.571 402.501 111 372.28 111H338.08" stroke="#141414" stroke-width="30" stroke-linecap="round" stroke-linejoin="round"/>
<path d="M310.667 152H201.333C186.238 152 174 139.848 174 124.857V84.1429C174 69.1523 186.238 57 201.333 57H310.667C325.762 57 338 69.1523 338 84.1429V124.857C338 139.848 325.762 152 310.667 152Z" stroke="#141414" stroke-width="30" stroke-linecap="round" stroke-linejoin="round"/>
<path d="M260.24 247.24C267.653 247.24 273.627 249.08 278.16 252.76C282.693 256.44 286 261.64 288.08 268.36C290.213 275.08 291.28 283.053 291.28 292.28C291.28 301.027 290 308.84 287.44 315.72C284.88 322.547 281.173 327.933 276.32 331.88C271.467 335.773 265.573 337.72 258.64 337.72C250.373 337.72 243.653 334.76 238.48 328.84V367.8L213.2 370.44V250.04H235.6L236.72 259.56C240.187 255.133 243.973 251.987 248.08 250.12C252.187 248.2 256.24 247.24 260.24 247.24ZM252.4 265.88C249.467 265.88 246.88 266.76 244.64 268.52C242.4 270.28 240.347 272.68 238.48 275.72V311.56C240.24 314.173 242.08 316.093 244 317.32C245.973 318.547 248.293 319.16 250.96 319.16C255.44 319.16 258.933 317.133 261.44 313.08C263.947 308.973 265.2 302.147 265.2 292.6C265.2 285.56 264.693 280.12 263.68 276.28C262.667 272.387 261.2 269.693 259.28 268.2C257.36 266.653 255.067 265.88 252.4 265.88Z" fill="black"/>
</svg>
